<svg width="51" height="37" viewBox="0 0 51 37" fill="none" xmlns="http://www.w3.org/2000/svg">
<path d="M50.4756 18.4875C50.4756 18.3645 50.4756 18.2248 50.47 18.0627C50.4644 17.6099 50.4531 17.1013 50.4419 16.559C50.3969 14.9995 50.3181 13.4456 50.1944 11.9811C50.0256 9.96317 49.7781 8.28067 49.4405 7.01739C49.0843 5.69905 48.3861 4.4967 47.4157 3.5305C46.4452 2.5643 45.2366 1.86811 43.9105 1.51151C42.3184 1.08669 39.2018 0.823975 34.8138 0.661873C32.7266 0.583617 30.4932 0.533309 28.2598 0.50536C27.4779 0.494181 26.7522 0.488591 26.0996 0.483002H24.4456C23.7931 0.488591 23.0673 0.494181 22.2854 0.50536C20.052 0.533309 17.8186 0.583617 15.7315 0.661873C11.3434 0.829564 8.22119 1.09228 6.63475 1.51151C5.30822 1.86724 4.09908 2.56314 3.12851 3.52947C2.15794 4.4958 1.46002 5.69862 1.1047 7.01739C0.761538 8.28067 0.519634 9.96317 0.350864 11.9811C0.227099 13.4456 0.148339 14.9995 0.103334 16.559C0.086457 17.1013 0.0808313 17.6099 0.0752057 18.0627C0.0752057 18.2248 0.0695801 18.3645 0.0695801 18.4875V18.8005C0.0695801 18.9235 0.06958 19.0632 0.0752057 19.2253C0.0808313 19.6781 0.0920827 20.1868 0.103334 20.729C0.148339 22.2885 0.227099 23.8425 0.350864 25.307C0.519634 27.3249 0.767164 29.0074 1.1047 30.2706C1.82479 32.9481 3.94005 35.061 6.63475 35.7765C8.22119 36.2013 11.3434 36.4641 15.7315 36.6262C17.8186 36.7044 20.052 36.7547 22.2854 36.7827C23.0673 36.7938 23.7931 36.7994 24.4456 36.805H26.0996C26.7522 36.7994 27.4779 36.7938 28.2598 36.7827C30.4932 36.7547 32.7266 36.7044 34.8138 36.6262C39.2018 36.4585 42.324 36.1958 43.9105 35.7765C46.6052 35.061 48.7204 32.9537 49.4405 30.2706C49.7837 29.0074 50.0256 27.3249 50.1944 25.307C50.3181 23.8425 50.3969 22.2885 50.4419 20.729C50.4588 20.1868 50.4644 19.6781 50.47 19.2253C50.47 19.0632 50.4756 18.9235 50.4756 18.8005V18.4875ZM46.4252 18.7782C46.4252 18.8956 46.4252 19.0241 46.4195 19.175C46.4139 19.611 46.4027 20.0918 46.3914 20.6116C46.352 22.0985 46.2733 23.5853 46.1551 24.966C46.0032 26.7659 45.7895 28.2416 45.5251 29.231C45.1763 30.5222 44.1524 31.5451 42.8585 31.8861C41.6771 32.1991 38.7011 32.4506 34.6562 32.6016C32.6085 32.6798 30.4032 32.7301 28.2036 32.7581C27.4329 32.7692 26.7184 32.7748 26.0771 32.7748H24.4681L22.3416 32.7581C20.142 32.7301 17.9424 32.6798 15.889 32.6016C11.8441 32.445 8.86251 32.1991 7.68675 31.8861C6.39284 31.5395 5.36897 30.5222 5.02018 29.231C4.75577 28.2416 4.54199 26.7659 4.3901 24.966C4.27196 23.5853 4.19883 22.0985 4.15382 20.6116C4.13694 20.0918 4.13132 19.6054 4.12569 19.175C4.12569 19.0241 4.12007 18.89 4.12007 18.7782V18.5099C4.12007 18.3925 4.12007 18.2639 4.12569 18.113C4.13132 17.677 4.14257 17.1963 4.15382 16.6764C4.1932 15.1896 4.27196 13.7027 4.3901 12.322C4.54199 10.5221 4.75577 9.04646 5.02018 8.05708C5.36897 6.76585 6.39284 5.74293 7.68675 5.40196C8.86814 5.08893 11.8441 4.8374 15.889 4.68647C17.9367 4.60822 20.142 4.55791 22.3416 4.52996C23.1124 4.51878 23.8268 4.51319 24.4681 4.51319H26.0771L28.2036 4.52996C30.4032 4.55791 32.6029 4.60822 34.6562 4.68647C38.7011 4.84299 41.6827 5.08893 42.8585 5.40196C44.1524 5.74852 45.1763 6.76585 45.5251 8.05708C45.7895 9.04646 46.0032 10.5221 46.1551 12.322C46.2733 13.7027 46.3464 15.1896 46.3914 16.6764C46.4083 17.1963 46.4139 17.6826 46.4195 18.113C46.4195 18.2639 46.4252 18.3981 46.4252 18.5099V18.7782ZM20.2658 26.1342L33.3173 18.5881L20.2658 11.1538V26.1342Z" fill="#0074BE"/>
</svg>
