<svg width="92" height="92" viewBox="0 0 92 92" fill="none" xmlns="http://www.w3.org/2000/svg">
<path d="M60.375 46C60.375 49.8125 58.8605 53.4688 56.1647 56.1647C53.4688 58.8605 49.8125 60.375 46 60.375C42.1875 60.375 38.5312 58.8605 35.8353 56.1647C33.1395 53.4688 31.625 49.8125 31.625 46C31.625 45.1806 31.7112 44.3804 31.8598 43.6042H26.8333V62.7565C26.8333 64.0885 27.9115 65.1667 29.2435 65.1667H62.7612C63.3996 65.1654 64.0115 64.9109 64.4624 64.459C64.9134 64.0072 65.1667 63.3949 65.1667 62.7565V43.6042H60.1402C60.2887 44.3804 60.375 45.1806 60.375 46ZM46 55.5833C47.2588 55.583 48.5052 55.3348 49.6681 54.8527C50.831 54.3707 51.8875 53.6644 52.7774 52.774C53.6673 51.8837 54.3731 50.8268 54.8546 49.6637C55.336 48.5006 55.5836 47.254 55.5833 45.9952C55.583 44.7364 55.3348 43.49 54.8527 42.3271C54.3707 41.1642 53.6644 40.1077 52.774 39.2178C51.8837 38.3279 50.8268 37.6221 49.6637 37.1406C48.5006 36.6592 47.254 36.4116 45.9952 36.4119C43.4529 36.4125 41.015 37.423 39.2178 39.2212C37.4206 41.0193 36.4112 43.4577 36.4119 46C36.4125 48.5423 37.423 50.9802 39.2212 52.7774C41.0193 54.5747 43.4577 55.584 46 55.5833ZM57.5 35.9375H63.2452C63.6269 35.9375 63.993 35.7862 64.2634 35.5168C64.5337 35.2473 64.6862 34.8817 64.6875 34.5V28.7548C64.6875 28.3723 64.5355 28.0054 64.2651 27.7349C63.9946 27.4645 63.6277 27.3125 63.2452 27.3125H57.5C57.1175 27.3125 56.7506 27.4645 56.4801 27.7349C56.2097 28.0054 56.0577 28.3723 56.0577 28.7548V34.5C56.0625 35.2906 56.7094 35.9375 57.5 35.9375ZM46 0C33.8 0 22.0998 4.84641 13.4731 13.4731C4.84641 22.0998 0 33.8 0 46C0 58.2 4.84641 69.9002 13.4731 78.5269C22.0998 87.1536 33.8 92 46 92C52.0408 92 58.0225 90.8102 63.6034 88.4985C69.1844 86.1867 74.2554 82.7984 78.5269 78.5269C82.7984 74.2554 86.1867 69.1844 88.4985 63.6034C90.8102 58.0225 92 52.0408 92 46C92 39.9592 90.8102 33.9775 88.4985 28.3966C86.1867 22.8156 82.7984 17.7446 78.5269 13.4731C74.2554 9.20159 69.1844 5.81326 63.6034 3.50154C58.0225 1.18983 52.0408 0 46 0ZM69.9583 64.6348C69.9583 67.5625 67.5625 69.9583 64.6348 69.9583H27.3652C24.4375 69.9583 22.0417 67.5625 22.0417 64.6348V27.3652C22.0417 24.4375 24.4375 22.0417 27.3652 22.0417H64.6348C67.5625 22.0417 69.9583 24.4375 69.9583 27.3652V64.6348Z" fill="white"/>
</svg>
