<svg width="52" height="32" viewBox="0 0 52 32" fill="none" xmlns="http://www.w3.org/2000/svg">
<path fill-rule="evenodd" clip-rule="evenodd" d="M50.6984 2.97924C51.0573 1.7988 50.6984 0.929688 48.9796 0.929688H43.3044C41.8602 0.929688 41.1943 1.67989 40.8333 2.50793C40.8333 2.50793 37.947 9.41762 33.8587 13.9059C32.5356 15.2074 31.9346 15.6203 31.2125 15.6203C30.8514 15.6203 30.3088 15.2074 30.3088 14.0248V2.97924C30.3088 1.56099 29.911 0.929688 28.7089 0.929688H19.7843C18.8827 0.929688 18.3401 1.58693 18.3401 2.21174C18.3401 3.55433 20.3853 3.86566 20.595 7.6448V15.856C20.595 17.6569 20.2642 17.9834 19.5421 17.9834C17.618 17.9834 12.9373 11.0413 10.1591 3.09815C9.6208 1.55234 9.07598 0.929688 7.6253 0.929688H1.94578C0.324297 0.929688 0 1.67989 0 2.50793C0 3.9824 1.92416 11.3072 8.9614 20.995C13.6529 27.6107 20.2577 31.1974 26.2745 31.1974C29.8829 31.1974 30.3282 30.4018 30.3282 29.0289V24.0283C30.3282 22.4349 30.6698 22.1171 31.8135 22.1171C32.6567 22.1171 34.0987 22.5322 37.4671 25.7211C41.3154 29.5024 41.9489 31.1974 44.1152 31.1974H49.7904C51.4118 31.1974 52.2247 30.4018 51.7578 28.8279C51.2432 27.2626 49.4055 24.9904 46.969 22.2944C45.6458 20.7594 43.6612 19.1055 43.058 18.2774C42.2169 17.2159 42.4569 16.7424 43.058 15.7976C43.058 15.7976 49.9763 6.2287 50.6962 2.97924H50.6984Z" fill="#0074BE"/>
</svg>
