<svg width="92" height="92" viewBox="0 0 92 92" fill="none" xmlns="http://www.w3.org/2000/svg">
<path d="M53.681 45.1998L42.919 40.1781C41.9798 39.7421 41.2083 40.2308 41.2083 41.2706V50.7294C41.2083 51.7692 41.9798 52.2579 42.919 51.8219L53.6763 46.8002C54.6202 46.3594 54.6202 45.6406 53.681 45.1998ZM46 0C20.5946 0 0 20.5946 0 46C0 71.4054 20.5946 92 46 92C71.4054 92 92 71.4054 92 46C92 20.5946 71.4054 0 46 0ZM46 64.6875C22.4538 64.6875 22.0417 62.5648 22.0417 46C22.0417 29.4352 22.4538 27.3125 46 27.3125C69.5462 27.3125 69.9583 29.4352 69.9583 46C69.9583 62.5648 69.5462 64.6875 46 64.6875Z" fill="white"/>
</svg>
