<svg width="92" height="92" viewBox="0 0 92 92" fill="none" xmlns="http://www.w3.org/2000/svg">
<path d="M46 0C20.5946 0 0 20.5946 0 46C0 71.4054 20.5946 92 46 92C71.4054 92 92 71.4054 92 46C92 20.5946 71.4054 0 46 0ZM63.6908 51.8985C63.6908 51.8985 67.759 55.914 68.7604 57.7779C68.7892 57.8162 68.8035 57.8546 68.8131 57.8737C69.2204 58.559 69.3163 59.0908 69.115 59.4885C68.7796 60.1498 67.6296 60.4756 67.2367 60.5044H60.0492C59.5508 60.5044 58.5062 60.375 57.2412 59.5029C56.2685 58.8225 55.3102 57.706 54.3758 56.6183C52.9815 54.9987 51.774 53.5996 50.5569 53.5996C50.4023 53.5993 50.2486 53.6236 50.1017 53.6715C49.1817 53.9685 48.0029 55.2815 48.0029 58.7794C48.0029 59.8719 47.1404 60.4996 46.5319 60.4996H43.24C42.1187 60.4996 36.2777 60.1067 31.1027 54.649C24.7681 47.9646 19.066 34.5575 19.0181 34.4329C18.6587 33.5656 19.4015 33.1008 20.2112 33.1008H27.4706C28.4385 33.1008 28.7548 33.6902 28.9752 34.2125C29.234 34.821 30.1827 37.2408 31.74 39.9625C34.2652 44.3996 35.8129 46.2012 37.054 46.2012C37.2867 46.1985 37.5152 46.1393 37.72 46.0287C39.3396 45.1279 39.0377 39.354 38.9658 38.156C38.9658 37.9308 38.961 35.5733 38.1321 34.4425C37.5379 33.6231 36.5269 33.3117 35.9135 33.1967C36.1618 32.8541 36.4888 32.5764 36.8671 32.3869C37.9787 31.831 39.9817 31.7496 41.9702 31.7496H43.0771C45.2333 31.7783 45.7892 31.9173 46.5702 32.1138C48.1515 32.4923 48.185 33.5129 48.046 37.006C48.0029 37.9979 47.9598 39.1192 47.9598 40.4417C47.9598 40.7292 47.9454 41.0358 47.9454 41.3617C47.8975 43.1394 47.84 45.1567 49.0954 45.9856C49.2592 46.0883 49.4484 46.1431 49.6417 46.1437C50.0777 46.1437 51.3906 46.1437 54.946 40.044C56.0425 38.0806 56.9954 36.0404 57.7971 33.9394C57.869 33.8148 58.0798 33.4315 58.329 33.2829C58.5128 33.1892 58.7167 33.1415 58.9231 33.144H67.4571C68.3867 33.144 69.024 33.2829 69.1437 33.6423C69.3546 34.2125 69.1054 35.9519 65.2098 41.2275L63.4704 43.5227C59.939 48.1515 59.939 48.3862 63.6908 51.8985Z" fill="white"/>
</svg>
