<svg width="37" height="37" viewBox="0 0 37 37" fill="none" xmlns="http://www.w3.org/2000/svg">
<path fill-rule="evenodd" clip-rule="evenodd" d="M11.3517 0.591937C13.2883 0.502783 13.9058 0.482971 18.839 0.482971C23.7722 0.482971 24.3897 0.504434 26.3246 0.591937C28.2596 0.67944 29.5804 0.988178 30.7361 1.4356C31.9463 1.89293 33.0442 2.60781 33.9523 3.53237C34.8768 4.43877 35.5901 5.53504 36.0457 6.74687C36.4948 7.90257 36.8019 9.22337 36.891 11.155C36.9802 13.095 37 13.7124 37 18.644C37 23.5772 36.9785 24.1947 36.891 26.1313C36.8035 28.0629 36.4948 29.3837 36.0457 30.5394C35.59 31.7514 34.8756 32.8495 33.9523 33.7573C33.0442 34.6818 31.9463 35.395 30.7361 35.8507C29.5804 36.2998 28.2596 36.6069 26.3279 36.696C24.3897 36.7852 23.7722 36.805 18.839 36.805C13.9058 36.805 13.2883 36.7835 11.3517 36.696C9.42003 36.6085 8.09923 36.2998 6.94353 35.8507C5.73156 35.395 4.63348 34.6806 3.72573 33.7573C2.80179 32.8503 2.0868 31.7527 1.63061 30.5411C1.18318 29.3854 0.876099 28.0646 0.786945 26.1329C0.697791 24.193 0.677979 23.5755 0.677979 18.644C0.677979 13.7108 0.699442 13.0933 0.786945 11.1583C0.874448 9.22337 1.18318 7.90257 1.63061 6.74687C2.08748 5.53517 2.80301 4.43764 3.72738 3.53072C4.63384 2.60699 5.73082 1.89201 6.94188 1.4356C8.09758 0.988178 9.41838 0.681091 11.3501 0.591937H11.3517ZM26.1777 3.86092C24.2625 3.77342 23.688 3.75526 18.839 3.75526C13.99 3.75526 13.4155 3.77342 11.5003 3.86092C9.72877 3.94182 8.76789 4.23735 8.1273 4.48665C7.28033 4.81685 6.67442 5.20814 6.03878 5.84377C5.43624 6.42996 4.97253 7.14358 4.68166 7.93229C4.43236 8.57288 4.13683 9.53376 4.05593 11.3053C3.96842 13.2204 3.95026 13.795 3.95026 18.644C3.95026 23.493 3.96842 24.0675 4.05593 25.9827C4.13683 27.7542 4.43236 28.7151 4.68166 29.3557C4.97223 30.1432 5.43616 30.8581 6.03878 31.4442C6.62489 32.0468 7.33977 32.5107 8.1273 32.8013C8.76789 33.0506 9.72877 33.3462 11.5003 33.4271C13.4155 33.5146 13.9884 33.5327 18.839 33.5327C23.6896 33.5327 24.2625 33.5146 26.1777 33.4271C27.9492 33.3462 28.9101 33.0506 29.5507 32.8013C30.3977 32.4711 31.0036 32.0798 31.6392 31.4442C32.2418 30.8581 32.7058 30.1432 32.9963 29.3557C33.2456 28.7151 33.5412 27.7542 33.6221 25.9827C33.7096 24.0675 33.7277 23.493 33.7277 18.644C33.7277 13.795 33.7096 13.2204 33.6221 11.3053C33.5412 9.53376 33.2456 8.57288 32.9963 7.93229C32.6661 7.08533 32.2748 6.47941 31.6392 5.84377C31.053 5.24127 30.3394 4.77757 29.5507 4.48665C28.9101 4.23735 27.9492 3.94182 26.1777 3.86092ZM16.5193 24.2425C17.8148 24.7818 19.2573 24.8546 20.6005 24.4484C21.9437 24.0423 23.1042 23.1825 23.8838 22.0157C24.6634 20.849 25.0138 19.4478 24.8751 18.0514C24.7364 16.6551 24.1173 15.3502 23.1233 14.3596C22.4897 13.7264 21.7236 13.2416 20.8802 12.94C20.0367 12.6384 19.1369 12.5276 18.2455 12.6155C17.354 12.7035 16.4932 12.9879 15.7249 13.4485C14.9566 13.9091 14.3 14.5342 13.8023 15.279C13.3046 16.0238 12.9783 16.8696 12.8467 17.7557C12.7152 18.6417 12.7817 19.5459 13.0416 20.4032C13.3014 21.2604 13.7481 22.0494 14.3495 22.7132C14.9508 23.3771 15.6919 23.8994 16.5193 24.2425ZM12.2383 12.0433C13.1051 11.1765 14.1342 10.4889 15.2667 10.0198C16.3993 9.55063 17.6131 9.30918 18.839 9.30918C20.0649 9.30918 21.2787 9.55063 22.4113 10.0198C23.5438 10.4889 24.5729 11.1765 25.4397 12.0433C26.3065 12.9101 26.9941 13.9392 27.4632 15.0717C27.9323 16.2043 28.1738 17.4181 28.1738 18.644C28.1738 19.8699 27.9323 21.0837 27.4632 22.2163C26.9941 23.3488 26.3065 24.3779 25.4397 25.2447C23.6891 26.9953 21.3147 27.9788 18.839 27.9788C16.3632 27.9788 13.9889 26.9953 12.2383 25.2447C10.4877 23.4941 9.50419 21.1197 9.50419 18.644C9.50419 16.1682 10.4877 13.7939 12.2383 12.0433ZM30.2441 10.6994C30.4589 10.4967 30.6309 10.2531 30.7498 9.98279C30.8688 9.71251 30.9323 9.42111 30.9366 9.12585C30.9409 8.83058 30.8859 8.53746 30.7749 8.26383C30.6639 7.99019 30.4991 7.74162 30.2903 7.53281C30.0815 7.32401 29.8329 7.15922 29.5593 7.04821C29.2856 6.93719 28.9925 6.88221 28.6972 6.88652C28.402 6.89082 28.1106 6.95433 27.8403 7.07327C27.57 7.19221 27.3263 7.36417 27.1237 7.57897C26.7296 7.99673 26.5139 8.55161 26.5223 9.12585C26.5306 9.70008 26.7625 10.2484 27.1686 10.6545C27.5746 11.0606 28.123 11.2925 28.6972 11.3008C29.2715 11.3092 29.8264 11.0934 30.2441 10.6994Z" fill="#0074BE"/>
</svg>
